<?xml version="1.0" standalone="no"?>
<!DOCTYPE svg PUBLIC "-//W3C//DTD SVG 20010904//EN"
 "http://www.w3.org/TR/2001/REC-SVG-20010904/DTD/svg10.dtd">
<svg version="1.0" xmlns="http://www.w3.org/2000/svg"
 width="282.000000pt" height="282.000000pt" viewBox="0 0 282.000000 282.000000"
 preserveAspectRatio="xMidYMid meet">
<metadata>
Created by potrace 1.11, written by Peter Selinger 2001-2013
</metadata>
<g transform="translate(0.000000,282.000000) scale(0.100000,-0.100000)"
fill="#000000" stroke="none">
<path d="M1591 2252 c-25 -2 -57 -12 -72 -23 -15 -10 -42 -19 -61 -19 -28 0
-44 -11 -103 -70 -53 -53 -76 -70 -97 -70 -15 0 -46 -7 -69 -17 -36 -14 -70
-51 -233 -257 -105 -133 -206 -260 -225 -283 -26 -35 -39 -43 -65 -43 -18 0
-51 -10 -74 -22 -37 -21 -69 -67 -298 -428 -141 -223 -262 -416 -269 -430
l-13 -25 1399 0 c769 0 1399 4 1399 8 0 17 -665 1053 -694 1083 -17 17 -52 45
-77 62 -26 17 -65 52 -87 78 -34 38 -44 59 -58 122 -25 118 -51 222 -72 281
l-18 53 -84 2 c-47 0 -105 0 -129 -2z"/>
</g>
</svg>
