<svg id="Trace" xmlns="http://www.w3.org/2000/svg" viewBox="0 0 717.78 195.06"><defs><style>.cls-1{fill:#190707;}.cls-1,.cls-2{stroke:#190707;stroke-miterlimit:10;}.cls-2{fill:#fcfcfc;}</style></defs><title>cforb</title><path class="cls-1" d="M172.8,257L92.66,301.43s57.69,31.71,83.27,47c5.09,2.76,6.43,8.76,1.74,14.78-4,5.1-8.32,9.32-15.55,4.41-26.43-15.43-96.76-53.43-96.76-53.43L42.31,301l118.46-65.66a12.44,12.44,0,0,1,16.86,4.83h0A12.44,12.44,0,0,1,172.8,257Z" transform="translate(-41.3 -202.54)"/><path class="cls-1" d="M627.57,346.52l80.14-44.42s-57.69-31.71-83.27-47c-5.09-2.76-6.43-8.76-1.74-14.78,4-5.1,8.32-9.32,15.55-4.41C664.68,251.38,735,289.38,735,289.38l23,13.17L639.6,368.21a12.44,12.44,0,0,1-16.86-4.83h0A12.44,12.44,0,0,1,627.57,346.52Z" transform="translate(-41.3 -202.54)"/><rect class="cls-1" x="434.37" y="287.73" width="211.43" height="24.67" rx="11.88" ry="11.88" transform="translate(-2.14 459.2) rotate(-64.89)"/><path class="cls-1" d="M474,381H194.71L248,296.78s5-6.28,15.14-5.23a16.74,16.74,0,0,0,2.27-3l41.84-52.77s5.06-3.07,6.94-3.62,7.56-.63,7.56-0.63L336,217.25l6.25,0.25,6.25-4.25h24.25A127.28,127.28,0,0,1,380,237.5c1,4.54,2.29,14.05,4.75,18A52.92,52.92,0,0,0,401.5,270l5.5,5.75Z" transform="translate(-41.3 -202.54)"/><path class="cls-2" d="M274.5,321.79l-17.88-1L308,256.5s3.25-5.5,9-5.5a16.68,16.68,0,0,0,8.25-2.25S342.6,234.68,350,230.5c1.66-.55,7,0,7,0l-28,33.25h9.75s-17,23.25-26,36c-2.75,6.79-13.2,7.62-13.2,7.62s-4.62.81-10.55,2.42C282.75,312.25,274.5,321.79,274.5,321.79Z" transform="translate(-41.3 -202.54)"/><path class="cls-2" d="M346.5,311.67a17.33,17.33,0,0,1-8.67.67c-1.54-.39,0-3.78-0.5-3.67-5.37,1.54-13.84,7.22-16.83,8.08-12.33,8.75-17.5,5-17.5,5s20.33-23.45,29.67-34.62c6.58-4,10.33-3.33,14.5-6.33,4.56-3,15.83-15.17,15.83-15.17s4.67,4,2.17,7.67C355.67,293.73,346.5,311.67,346.5,311.67Z" transform="translate(-41.3 -202.54)"/><path class="cls-2" d="M406.83,320.5a10.46,10.46,0,0,1-3.67,3.5c-5.53,2.43-18.33,6.5-18.33,6.5l-0.17-3.5s-15.83,10.83-34.17,21.17c2.83-13.17-2.17-15.76-2.17-15.76l-0.49-3.57s14.94-28.62,24-45.83c4.83-10.5,11.83-3.5,11.83-3.5s12.5,12,19.67,18.67C407.83,312.5,406.83,320.5,406.83,320.5Z" transform="translate(-41.3 -202.54)"/></svg>